REM DIRINDEX 1\2\6,1\2\7,1\2\8,1\2\9,1\3\10,1\3\11,1\4\12,1\4\13,1\4\14,1\5\15,1\5\16,1\5\17
REM DIRNAME folder01,folder02,folder03,folder04,folder05,folder06,folder07,folder08,folder09,folder10,folder11,folder12,folder13,folder14,folder15,folder16,folder17
TITLE ""
FILE "1400_2_sec01_0050_0066.mp3" MP3
  TRACK 01 AUDIO
    TITLE "0:"
    INDEX 01 00:00:00
  TRACK 02 AUDIO
    TITLE "13:cjc029_1664"
    INDEX 01 00:00:19
  TRACK 03 AUDIO
    TITLE "0:"
    INDEX 01 00:01:17
  TRACK 04 AUDIO
    TITLE "14:cjc029_1665"
    INDEX 01 00:01:21
  TRACK 05 AUDIO
    TITLE "0:"
    INDEX 01 00:04:38
  TRACK 06 AUDIO
    TITLE "13:cjc029_1666"
    INDEX 01 00:05:20
  TRACK 07 AUDIO
    TITLE "0:"
    INDEX 01 00:06:28
  TRACK 08 AUDIO
    TITLE "14:cjc029_1667"
    INDEX 01 00:06:35
  TRACK 09 AUDIO
    TITLE "0:"
    INDEX 01 00:08:54
  TRACK 10 AUDIO
    TITLE "13:cjc029_1668"
    INDEX 01 00:09:34
  TRACK 11 AUDIO
    TITLE "0:"
    INDEX 01 00:10:43
  TRACK 12 AUDIO
    TITLE "14:cjc029_1669"
    INDEX 01 00:10:47
  TRACK 13 AUDIO
    TITLE "0:"
    INDEX 01 00:13:02
  TRACK 14 AUDIO
    TITLE "13:cjc029_1670"
    INDEX 01 00:13:57
  TRACK 15 AUDIO
    TITLE "0:"
    INDEX 01 00:14:64
  TRACK 16 AUDIO
    TITLE "14:cjc029_1671"
    INDEX 01 00:14:70
  TRACK 17 AUDIO
    TITLE "0:"
    INDEX 01 00:18:62
  TRACK 18 AUDIO
    TITLE "13:cjc029_1672"
    INDEX 01 00:19:42
  TRACK 19 AUDIO
    TITLE "0:"
    INDEX 01 00:20:53
  TRACK 20 AUDIO
    TITLE "14:cjc029_1673"
    INDEX 01 00:20:57
  TRACK 21 AUDIO
    TITLE "0:"
    INDEX 01 00:24:14
  TRACK 22 AUDIO
    TITLE "13:cjc029_1674"
    INDEX 01 00:24:69
  TRACK 23 AUDIO
    TITLE "0:"
    INDEX 01 00:25:74
  TRACK 24 AUDIO
    TITLE "14:cjc029_1675"
    INDEX 01 00:26:01
  TRACK 25 AUDIO
    TITLE "0:"
    INDEX 01 00:30:46
  TRACK 26 AUDIO
    TITLE "13:cjc029_1676"
    INDEX 01 00:31:27
  TRACK 27 AUDIO
    TITLE "0:"
    INDEX 01 00:32:35
  TRACK 28 AUDIO
    TITLE "14:cjc029_1677"
    INDEX 01 00:32:39
  TRACK 29 AUDIO
    TITLE "0:"
    INDEX 01 00:35:53
  TRACK 30 AUDIO
    TITLE "13:cjc029_1678"
    INDEX 01 00:36:35
  TRACK 31 AUDIO
    TITLE "0:"
    INDEX 01 00:37:52
  TRACK 32 AUDIO
    TITLE "14:cjc029_1679"
    INDEX 01 00:37:54
  TRACK 33 AUDIO
    TITLE "0:"
    INDEX 01 00:40:05
  TRACK 34 AUDIO
    TITLE "13:cjc029_1680"
    INDEX 01 00:40:64
  TRACK 35 AUDIO
    TITLE "0:"
    INDEX 01 00:41:71
  TRACK 36 AUDIO
    TITLE "14:cjc029_1681"
    INDEX 01 00:42:00
  TRACK 37 AUDIO
    TITLE "0:"
    INDEX 01 00:45:26
  TRACK 38 AUDIO
    TITLE "13:cjc029_1682"
    INDEX 01 00:46:06
  TRACK 39 AUDIO
    TITLE "0:"
    INDEX 01 00:47:34
  TRACK 40 AUDIO
    TITLE "14:cjc029_1683"
    INDEX 01 00:47:36
  TRACK 41 AUDIO
    TITLE "0:"
    INDEX 01 00:49:00
  TRACK 42 AUDIO
    TITLE "13:cjc029_1684"
    INDEX 01 00:49:57
  TRACK 43 AUDIO
    TITLE "0:"
    INDEX 01 00:51:09
  TRACK 44 AUDIO
    TITLE "14:cjc029_1685"
    INDEX 01 00:51:13
  TRACK 45 AUDIO
    TITLE "0:"
    INDEX 01 00:53:45
  TRACK 46 AUDIO
    TITLE "13:cjc029_1686"
    INDEX 01 00:54:27
  TRACK 47 AUDIO
    TITLE "0:"
    INDEX 01 00:55:48
  TRACK 48 AUDIO
    TITLE "14:cjc029_1687"
    INDEX 01 00:55:51
  TRACK 49 AUDIO
    TITLE "0:"
    INDEX 01 00:59:14
  TRACK 50 AUDIO
    TITLE "13:cjc029_1688"
    INDEX 01 00:59:71
  TRACK 51 AUDIO
    TITLE "0:"
    INDEX 01 01:01:11
  TRACK 52 AUDIO
    TITLE "14:cjc029_1689"
    INDEX 01 01:01:13
  TRACK 53 AUDIO
    TITLE "0:"
    INDEX 01 01:05:30
  TRACK 54 AUDIO
    TITLE "13:cjc029_1690"
    INDEX 01 01:06:10
  TRACK 55 AUDIO
    TITLE "0:"
    INDEX 01 01:07:21
  TRACK 56 AUDIO
    TITLE "14:cjc029_1691"
    INDEX 01 01:07:25
  TRACK 57 AUDIO
    TITLE "0:"
    INDEX 01 01:09:38
  TRACK 58 AUDIO
    TITLE "13:cjc029_1692"
    INDEX 01 01:10:18
  TRACK 59 AUDIO
    TITLE "0:"
    INDEX 01 01:11:21
  TRACK 60 AUDIO
    TITLE "14:cjc029_1693"
    INDEX 01 01:11:25
  TRACK 61 AUDIO
    TITLE "0:"
    INDEX 01 01:15:58
  TRACK 62 AUDIO
    TITLE "13:cjc029_1694"
    INDEX 01 01:16:40
  TRACK 63 AUDIO
    TITLE "0:"
    INDEX 01 01:17:43
  TRACK 64 AUDIO
    TITLE "14:cjc029_1695"
    INDEX 01 01:17:47
  TRACK 65 AUDIO
    TITLE "0:"
    INDEX 01 01:18:41
  TRACK 66 AUDIO
    TITLE "13:cjc029_1696"
    INDEX 01 01:19:23
  TRACK 67 AUDIO
    TITLE "0:"
    INDEX 01 01:20:53
  TRACK 68 AUDIO
    TITLE "14:cjc029_1697"
    INDEX 01 01:20:55
  TRACK 69 AUDIO
    TITLE "0:"
    INDEX 01 01:21:69
